<svg xmlns="http://www.w3.org/2000/svg" width="430" height="430" style="width:100%;height:100%;transform:translate3d(0,0,0);content-visibility:visible" viewBox="0 0 430 430"><defs><clipPath id="s"><path d="M0 0h430v430H0z"/></clipPath><clipPath id="D"><path d="M0 0h430v430H0z"/></clipPath><clipPath id="E"><path d="M0 0h430v430H0z"/></clipPath><clipPath id="p"><path d="M0 0h430v430H0z"/></clipPath><clipPath id="F"><path d="M0 0h430v430H0z"/></clipPath><clipPath id="y"><path d="M0 0h430v430H0z"/></clipPath><clipPath id="z"><path d="M0 0h430v430H0z"/></clipPath><clipPath id="q"><path d="M0 0h430v430H0z"/></clipPath><clipPath id="B"><path d="M0 0h430v430H0z"/></clipPath><clipPath id="t"><path d="M0 0h430v430H0z"/></clipPath><clipPath id="u"><path d="M0 0h430v430H0z"/></clipPath><clipPath id="r"><path d="M0 0h430v430H0z"/></clipPath><clipPath id="v"><path d="M0 0h430v430H0z"/></clipPath><filter id="a" width="100%" height="100%" x="0%" y="0%" filterUnits="objectBoundingBox"><feComponentTransfer in="SourceGraphic"><feFuncA tableValues="1.0 0.0" type="table"/></feComponentTransfer></filter><filter id="d" width="100%" height="100%" x="0%" y="0%" filterUnits="objectBoundingBox"><feComponentTransfer in="SourceGraphic"><feFuncA tableValues="1.0 0.0" type="table"/></feComponentTransfer></filter><filter id="f" width="100%" height="100%" x="0%" y="0%" filterUnits="objectBoundingBox"><feComponentTransfer in="SourceGraphic"><feFuncA tableValues="1.0 0.0" type="table"/></feComponentTransfer></filter><filter id="i" width="100%" height="100%" x="0%" y="0%" filterUnits="objectBoundingBox"><feComponentTransfer in="SourceGraphic"><feFuncA tableValues="1.0 0.0" type="table"/></feComponentTransfer></filter><filter id="k" width="100%" height="100%" x="0%" y="0%" filterUnits="objectBoundingBox"><feComponentTransfer in="SourceGraphic"><feFuncA tableValues="1.0 0.0" type="table"/></feComponentTransfer></filter><filter id="n" width="100%" height="100%" x="0%" y="0%" filterUnits="objectBoundingBox"><feComponentTransfer in="SourceGraphic"><feFuncA tableValues="1.0 0.0" type="table"/></feComponentTransfer></filter><mask id="G" mask-type="alpha" maskUnits="userSpaceOnUse"><g filter="url(#a)"><path fill="#fff" d="M0 0h430v430H0z" opacity="0"/><use xmlns:ns1="http://www.w3.org/1999/xlink" ns1:href="#c"/></g></mask><mask id="H" mask-type="alpha" maskUnits="userSpaceOnUse"><g filter="url(#d)"><path fill="#fff" d="M0 0h430v430H0z" opacity="0"/><use xmlns:ns2="http://www.w3.org/1999/xlink" ns2:href="#e"/></g></mask><mask id="A" mask-type="alpha" maskUnits="userSpaceOnUse"><g filter="url(#f)"><path fill="#fff" d="M0 0h430v430H0z" opacity="0"/><use xmlns:ns3="http://www.w3.org/1999/xlink" ns3:href="#h"/></g></mask><mask id="C" mask-type="alpha" maskUnits="userSpaceOnUse"><g filter="url(#i)"><path fill="#fff" d="M0 0h430v430H0z" opacity="0"/><use xmlns:ns4="http://www.w3.org/1999/xlink" ns4:href="#j"/></g></mask><mask id="w" mask-type="alpha" maskUnits="userSpaceOnUse"><g filter="url(#k)"><path fill="#fff" d="M0 0h430v430H0z" opacity="0"/><use xmlns:ns5="http://www.w3.org/1999/xlink" ns5:href="#m"/></g></mask><mask id="x" mask-type="alpha" maskUnits="userSpaceOnUse"><g filter="url(#n)"><path fill="#fff" d="M0 0h430v430H0z" opacity="0"/><use xmlns:ns6="http://www.w3.org/1999/xlink" ns6:href="#o"/></g></mask><g id="e" style="display:none"><path fill-opacity="0" stroke-linecap="round" stroke-linejoin="round"/><path/></g><g id="c" clip-path="url(#p)" style="display:none"><g style="display:none"><path fill-opacity="0" stroke-linecap="round" stroke-linejoin="round"/><path/></g><g style="display:none"><path fill-opacity="0" stroke-linecap="round" stroke-linejoin="round"/><path/></g><g style="display:none"><path fill-opacity="0" stroke-linecap="round" stroke-linejoin="round"/><path/></g><g style="display:none"><path fill-opacity="0" stroke-linecap="round" stroke-linejoin="round"/><path/></g></g><g id="j" style="display:block"><path fill-opacity="0" stroke="#08A88A" stroke-linecap="round" stroke-linejoin="round" stroke-width="0" d="m265.52 97.263 11.002 45.681 33.862 44.604s-12.013 18.856-30.093 7.167L250.28 155.11l-15.25-55.848"/><path fill="red" d="m265.52 97.263 11.002 45.681 33.862 44.604s-12.013 18.856-30.093 7.167L250.28 155.11l-15.25-55.848"/></g><g id="h" clip-path="url(#q)" style="display:block" transform="translate(-2 -5)"><g style="display:block"><path fill-opacity="0" stroke="#121331" stroke-linecap="round" stroke-linejoin="round" stroke-width="0" d="m192.245 166.773 27.97 38.836c7.605 7.474 8.092 19.572 1.114 27.634l-28.996 44.841s10.333 25.749-2 31.166l-38.49-33.144 33.445-55.125-33.977-49.071c-3.311-4.785-11.159-23.148-.161-42.077 4.474-7.7 10.74-12.118 14.732-14.409"/><path fill="red" d="m192.245 166.773 27.97 38.836c7.605 7.474 8.092 19.572 1.114 27.634l-28.996 44.841s10.333 25.749-2 31.166l-38.49-33.144 33.445-55.125-33.977-49.071c-3.311-4.785-11.159-23.148-.161-42.077 4.474-7.7 10.74-12.118 14.732-14.409"/></g><g style="display:block"><path fill-opacity="0" stroke="#08A88A" stroke-linecap="round" stroke-linejoin="round" stroke-width="0" d="M241.538 81.27c9.812.622 19.061 6.259 23.865 15.656a28.75 28.75 0 0 1 1.764 22.004c-2.271 7.022-7.214 13.172-14.308 16.799l-60.755 31.06-26.256-51.358 60.755-31.06c8.361-3.739 14.604-3.134 14.935-3.101"/><path fill="red" d="M241.538 81.27c9.812.622 19.061 6.259 23.865 15.656a28.75 28.75 0 0 1 1.764 22.004c-2.271 7.022-7.214 13.172-14.308 16.799l-60.755 31.06-26.256-51.358 60.755-31.06c8.361-3.739 14.604-3.134 14.935-3.101"/></g><g style="display:block"><path fill-opacity="0" stroke="#121331" stroke-linecap="round" stroke-linejoin="round" stroke-width="0" d="m278.097 82.443 8.677 13.949c1.729 2.779 5.418 3.638 8.197 1.909l23.248-14.462c9.292-5.78 12.164-18.112 6.384-27.404l-1.311-2.108c-5.78-9.292-18.112-12.164-27.404-6.384l-11.407 7.096c-9.292 5.78-12.164 18.112-6.384 27.404"/><path fill="red" d="m278.097 82.443 8.677 13.949c1.729 2.779 5.418 3.638 8.197 1.909l23.248-14.462c9.292-5.78 12.164-18.112 6.384-27.404l-1.311-2.108c-5.78-9.292-18.112-12.164-27.404-6.384l-11.407 7.096c-9.292 5.78-12.164 18.112-6.384 27.404"/></g><g style="display:block"><path fill-opacity="0" stroke="#08A88A" stroke-linecap="round" stroke-linejoin="round" stroke-width="0" d="m267.519 102.264 11.002 45.681 33.862 44.604s-12.013 18.856-30.093 7.167l-30.011-39.605-15.25-55.848"/><path fill="red" d="m267.519 102.264 11.002 45.681 33.862 44.604s-12.013 18.856-30.093 7.167l-30.011-39.605-15.25-55.848"/></g></g><g id="o" style="display:none"><path fill-opacity="0" stroke-linecap="round" stroke-linejoin="round"/><path/></g><g id="m" clip-path="url(#r)" style="display:none"><g style="display:none"><path fill-opacity="0" stroke-linecap="round" stroke-linejoin="round"/><path/></g><g style="display:none"><path fill-opacity="0" stroke-linecap="round" stroke-linejoin="round"/><path/></g><g style="display:none"><path fill-opacity="0" stroke-linecap="round" stroke-linejoin="round"/><path/></g><g style="display:none"><path fill-opacity="0" stroke-linecap="round" stroke-linejoin="round"/><path/></g></g></defs><g clip-path="url(#s)"><g clip-path="url(#t)" style="display:none"><g clip-path="url(#u)" style="display:none"><g clip-path="url(#v)" mask="url(#w)" style="display:none"><path fill="none" class="primary" style="display:none"/><path fill="none" class="primary" style="display:none"/><path fill="none" class="primary" style="display:none"/><path fill="none" class="primary" style="display:none"/><path fill="none" class="primary" style="display:none"/><path fill="none" class="primary" style="display:none"/><path fill="none" class="primary" style="display:none"/><path fill="none" class="primary" style="display:none"/><g style="display:none"><path/><path fill="none" class="primary"/></g></g><path fill="none" class="primary" style="display:none"/><g mask="url(#x)" style="display:none"><path fill="none" class="secondary"/></g><path fill="none" class="primary" style="display:none"/><path fill="none" class="secondary" style="display:none"/></g></g><g clip-path="url(#y)" style="display:block"><g clip-path="url(#z)" style="display:block"><g mask="url(#A)" style="display:block"><g clip-path="url(#B)" transform="translate(-2 -5)"><path fill="none" stroke="#121330" stroke-linecap="round" stroke-linejoin="round" stroke-width="12" d="M29.193 73.942-29.193-73.942" class="primary" style="display:block" transform="translate(164.751 251.724)"/><path fill="none" stroke="#121330" stroke-linecap="round" stroke-linejoin="round" stroke-width="12" d="M-3.245 57.66h-90.857l53.51-97.419L94.102-57.66z" class="primary" style="display:block" transform="translate(197.189 268.006)"/><path fill="none" stroke="#121330" stroke-linecap="round" stroke-linejoin="round" stroke-width="12" d="M-69.749 0c0 38.521 31.228 69.749 69.749 69.749S69.749 38.521 69.749 0 38.521-69.749 0-69.749-69.749-38.521-69.749 0" class="primary" style="display:block" transform="translate(103.087 325.811)"/><path fill="none" stroke="#121330" stroke-linecap="round" stroke-linejoin="round" stroke-width="12" d="M-21.795-21.795c0 24.073 19.508 43.59 43.59 43.59" class="primary" style="display:block" transform="translate(81.296 347.605)"/><path fill="none" stroke="#121330" stroke-linecap="round" stroke-linejoin="round" stroke-width="12" d="M-69.749 0c0 38.521 31.228 69.749 69.749 69.749S69.749 38.521 69.749 0 38.521-69.749 0-69.749-69.749-38.521-69.749 0" class="primary" style="display:block" transform="translate(332.057 325.811)"/><path fill="none" stroke="#121330" stroke-linecap="round" stroke-linejoin="round" stroke-width="12" d="M-21.795-21.795c0 24.073 19.508 43.59 43.59 43.59" class="primary" style="display:block" transform="translate(310.295 347.605)"/><path fill="none" stroke="#121330" stroke-linecap="round" stroke-linejoin="round" stroke-width="12" d="M-19.16-11.992s34.587-.081 34.654 0c8.667 10.435-.75 24.02-.75 24.02" class="primary" style="display:block" transform="translate(304.173 204.556)"/><path fill="none" stroke="#121330" stroke-linecap="round" stroke-linejoin="round" stroke-width="12" d="M23.522 66.623-23.522-66.623" class="primary" style="display:block" transform="translate(308.535 259.187)"/><g style="display:block"><path fill="#FFF" d="M150.206 177.782h-38.67"/><path fill="none" stroke="#121330" stroke-linecap="round" stroke-linejoin="round" stroke-width="12" d="M150.206 177.782h-38.67" class="primary"/></g></g></g><path fill="none" stroke="#121330" stroke-linecap="round" stroke-linejoin="round" stroke-width="12" d="m6.083-45.564 27.97 38.836c7.605 7.474 8.092 19.572 1.114 27.634L6.171 65.747s10.333 25.749-2 31.166l-38.49-33.144L-.874 8.644l-33.977-49.071c-3.311-4.785-11.159-23.148-.161-42.077 4.474-7.7 10.74-12.118 14.732-14.409" class="primary" style="display:block" transform="translate(184.162 207.337)"/><g mask="url(#C)" style="display:block"><path fill="none" stroke="#07A889" stroke-linecap="round" stroke-linejoin="round" stroke-width="12" d="M239.538 76.269c9.812.622 19.061 6.259 23.865 15.656a28.75 28.75 0 0 1 1.764 22.004c-2.271 7.022-7.214 13.172-14.308 16.799l-60.755 31.06-26.256-51.358 60.755-31.06c8.361-3.739 14.604-3.134 14.935-3.101" class="secondary"/></g><path fill="none" stroke="#121330" stroke-linecap="round" stroke-linejoin="round" stroke-width="12" d="m-23.253 10.367 8.677 13.949c1.729 2.779 5.418 3.638 8.197 1.909l23.248-14.462c9.292-5.78 12.164-18.112 6.384-27.404l-1.311-2.108c-5.78-9.292-18.112-12.164-27.404-6.384l-11.407 7.096c-9.292 5.78-12.164 18.112-6.384 27.404" class="primary" style="display:block" transform="translate(299.35 67.075)"/><path fill="none" stroke="#07A889" stroke-linecap="round" stroke-linejoin="round" stroke-width="12" d="M-7.187-50.637 3.815-4.956l33.862 44.604S25.664 58.504 7.584 46.815L-22.427 7.21l-15.25-55.848" class="secondary" style="display:block" transform="translate(272.707 147.9)"/></g></g><g clip-path="url(#D)" style="display:none"><g clip-path="url(#E)" style="display:none"><g clip-path="url(#F)" mask="url(#G)" style="display:none"><path fill="none" class="primary" style="display:none"/><path fill="none" class="primary" style="display:none"/><path fill="none" class="primary" style="display:none"/><path fill="none" class="primary" style="display:none"/><path fill="none" class="primary" style="display:none"/><path fill="none" class="primary" style="display:none"/><path fill="none" class="primary" style="display:none"/><path fill="none" class="primary" style="display:none"/><g style="display:none"><path/><path fill="none" class="primary"/></g></g><path fill="none" class="primary" style="display:none"/><g mask="url(#H)" style="display:none"><path fill="none" class="secondary"/></g><path fill="none" class="primary" style="display:none"/><path fill="none" class="secondary" style="display:none"/></g></g></g></svg>